<?xml version="1.0" encoding="UTF-8"?>
<svg width="45px" height="70px" viewBox="0 0 45 70" version="1.1" xmlns="http://www.w3.org/2000/svg" xmlns:xlink="http://www.w3.org/1999/xlink">
    <title>Group</title>
    <g id="Page-1" stroke="none" stroke-width="1" fill="none" fill-rule="evenodd">
        <g id="Artboard" transform="translate(-135.000000, -43.000000)" fill-rule="nonzero">
            <g id="Group" transform="translate(136.000000, 44.000000)">
                <path d="M14.0399717,45.0259317 L13.318591,36.4608574 C12.9342438,33.7792057 14.4760022,31.7917962 17.07763,31.4930844 C26.1345543,30.5992005 31.1463625,27.0229142 31.1463625,20.7642256 L31.1463625,20.5638335 C31.1463625,15.0016389 27.0015205,11.1258903 20.0665165,11.1258903 C14.957893,11.1258903 12.8145067,15.0127284 8.96083725,18.5905157 C7.99632825,19.3853294 6.74210175,19.981252 5.39324475,19.981252 C2.41018125,19.981252 0,17.4969902 0,14.5166266 C0,13.02682 0.5772495,11.4364422 1.9261065,10.2445969 C7.03473075,5.279826 11.4922112,0 20.3547775,0 C33.843349,0 43,7.74999617 43,20.168303 L43,20.3679446 C43,32.8845712 34.2306085,38.5480877 23.5351105,40.4364269 L22.9054495,45.0266822 C22.5196457,47.2114816 20.979343,49 18.7606075,49 L18.183358,49 C15.9660782,48.9992495 14.3289602,47.3098013 14.0399717,45.0259317 Z M24,62.498904 C24,65.5362338 21.537368,68 18.5018269,68 C15.4611707,68 13,65.5369645 13,62.498904 C13,59.4608436 15.4611707,57 18.5018269,57 C21.537368,57.0007307 24,59.4615742 24,62.498904 Z" id="mystery-bk" fill="#9F89AB"></path>
                <path d="M14.0399717,45.0259317 L13.318591,36.4608574 C12.9342438,33.7792057 14.4760022,31.7917962 17.07763,31.4930844 C26.1345543,30.5992005 31.1463625,27.0229142 31.1463625,20.7642256 L31.1463625,20.5638335 C31.1463625,15.0016389 27.0015205,11.1258903 20.0665165,11.1258903 C14.957893,11.1258903 12.8145067,15.0127284 8.96083725,18.5905157 C7.99632825,19.3853294 6.74210175,19.981252 5.39324475,19.981252 C2.41018125,19.981252 0,17.4969902 0,14.5166266 C0,13.02682 0.5772495,11.4364422 1.9261065,10.2445969 C7.03473075,5.279826 11.4922112,0 20.3547775,0 C33.843349,0 43,7.74999617 43,20.168303 L43,20.3679446 C43,32.8845712 34.2306085,38.5480877 23.5351105,40.4364269 L22.9054495,45.0266822 C22.5196457,47.2114816 20.979343,49 18.7606075,49 L18.183358,49 C15.9660782,48.9992495 14.3289602,47.3098013 14.0399717,45.0259317 Z M24,62.498904 C24,65.5362338 21.537368,68 18.5018269,68 C15.4611707,68 13,65.5369645 13,62.498904 C13,59.4608436 15.4611707,57 18.5018269,57 C21.537368,57.0007307 24,59.4615742 24,62.498904 Z" id="mystery" stroke="#452F51" stroke-width="2"></path>
            </g>
        </g>
    </g>
</svg>