<?xml version="1.0" encoding="UTF-8"?>
<svg width="91px" height="33px" viewBox="0 0 91 33" version="1.1" xmlns="http://www.w3.org/2000/svg" xmlns:xlink="http://www.w3.org/1999/xlink">
    <title>paper</title>
    <g id="Page-1" stroke="none" stroke-width="1" fill="none" fill-rule="evenodd">
        <g id="Artboard" transform="translate(-112.000000, -165.000000)">
            <g id="paper" transform="translate(113.507972, 166.195067)">
                <path d="M87.6568073,9.9195554 C84.1016239,8.58715747 61.1950612,2.68849029 50.9339429,1.27144035 C47.4078608,1.27144035 3.23904679,-1.12788362 0.401759768,0.665440227 C-0.761352007,5.53983439 0.760092241,6.95323212 2.92698712,8.57239157 C5.65159403,10.9483536 21.3377059,11.1526466 25.4122775,11.9901001 C24.0490607,14.7231672 26.5879238,17.6876226 28.311683,19.1586921 C31.750541,21.9044626 37.616507,22.4018053 44.7769451,22.4018053 C55.8265587,26.492247 63.2999487,29.2739268 70.5441655,30.0764494 C75.2626559,30.5991691 84.7944836,28.9471288 86.6706665,28.3574109 C87.6568073,26.554114 89.3049684,10.5372469 87.6568073,9.9195554 Z" id="paper-bk" fill="#AB9989"></path>
                <path d="M25.4122775,11.9901001 C25.7091739,9.52072973 32.1992523,9.37721422 44.8825125,11.5595535 C53.6031622,13.0713378 60.6586476,15.304934 62.7935291,17.7026361 M87.6568073,9.9195554 C84.1016239,8.58715747 61.1950612,2.68849029 50.9339429,1.27144035 C47.4078608,1.27144035 3.23904679,-1.12788362 0.401759768,0.665440227 C-0.761352007,5.53983439 0.760092241,6.95323212 2.92698712,8.57239157 C5.65159403,10.9483536 21.3377059,11.1526466 25.4122775,11.9901001 C24.0490607,14.7231672 26.5879238,17.6876226 28.311683,19.1586921 C31.750541,21.9044626 37.616507,22.4018053 44.7769451,22.4018053 C55.8265587,26.492247 63.2999487,29.2739268 70.5441655,30.0764494 C75.2626559,30.5991691 84.7944836,28.9471288 86.6706665,28.3574109 C87.6568073,26.554114 89.3049684,10.5372469 87.6568073,9.9195554 Z" stroke="#3D3329" stroke-width="2" stroke-linecap="round" stroke-linejoin="round"></path>
            </g>
        </g>
    </g>
</svg>