<?xml version="1.0" encoding="UTF-8"?>
<svg width="90px" height="64px" viewBox="0 0 90 64" version="1.1" xmlns="http://www.w3.org/2000/svg" xmlns:xlink="http://www.w3.org/1999/xlink">
    <title>rock</title>
    <g id="Page-1" stroke="none" stroke-width="1" fill="none" fill-rule="evenodd">
        <g id="Artboard" transform="translate(-9.000000, -150.000000)">
            <g id="rock" transform="translate(10.440029, 151.100316)">
                <path d="M52.0306337,0.094692298 C46.4957651,0.094692298 16.8574832,-1.8562071 20.9468231,11.9522558 C18.3623423,11.9522558 3.286047,9.41039106 3.286047,18.2189979 C3.286047,27.0276047 12.743042,23.3902748 22.4480797,24.1030306 C13.3587022,25.6407556 2.13162821e-14,22.5319017 2.13162821e-14,31.9499759 C2.13162821e-14,40.041318 21.9599223,34.8341234 27.9126656,34.8341234 C22.4480797,36.0146717 3.286047,36.0146717 3.286047,44.6531926 C3.286047,53.2917135 29.4243909,44.6531926 36.8238177,44.6531926 C21.9495892,47.4935868 10.9937972,47.4935868 12.743042,55.7539306 C13.5325984,58.6956933 16.9001346,59.9021508 22.4480797,59.0465737 C26.0816283,60.7814672 42.032416,61.7814672 53.9842859,60.0465737 C70.8548796,59.2838531 79.0387981,50.2779482 86.9227043,52.4002637 C86.9227043,45.9319114 86.9227043,21.3273269 86.9227043,16.6457729 C80.3650769,14.7634601 74.8523613,14.7634601 73.2320481,13.9060941 C68.8115859,10.758984 56.5643094,1.85490112 52.0306337,0.094692298 Z" id="hand-bk" fill="#AB9989"></path>
                <path d="M22.35095,58.9784742 C25.1981726,58.9784742 46.0550511,57.2867473 46.0550511,48.5928719 C46.0550511,43.1879676 38.6028009,44.6531926 36.8238177,44.6531926 C38.8703403,43.1456877 42.1774907,41.5723678 41.4198125,36.8895279 C41.4198125,31.9499759 31.1978684,34.7839835 27.5982257,34.7839835 C30.7526883,34.5518637 39.8697621,34.5518637 39.8697621,28.9107807 C39.8697621,23.6264572 34.7112839,26.2591641 35.2490327,23.6264572 C39.7113236,24.1605816 41.7682502,21.613341 41.4198125,15.9847356 M20.9468231,11.9522558 C23.8925758,22.7411309 23.8925758,31.9499759 25.2953024,33.5300061 C28.6256156,33.5300061 36.8238177,30.3322595 35.2490327,15.9847356 C36.8238177,14.7652373 38.9509164,15.71949 42.4068389,14.7652373 C40.4738886,22.4758853 47.4981062,30.7212181 56.9980331,31.9499759 M52.0306337,0.094692298 C46.4957651,0.094692298 16.8574832,-1.8562071 20.9468231,11.9522558 C18.3623423,11.9522558 3.286047,9.41039106 3.286047,18.2189979 C3.286047,27.0276047 12.743042,23.3902748 22.4480797,24.1030306 C13.3587022,25.6407556 2.13162821e-14,22.5319017 2.13162821e-14,31.9499759 C2.13162821e-14,40.041318 21.9599223,34.8341234 27.9126656,34.8341234 C22.4480797,36.0146717 3.286047,36.0146717 3.286047,44.6531926 C3.286047,53.2917135 29.4243909,44.6531926 36.8238177,44.6531926 C21.9495892,47.4935868 10.9937972,47.4935868 12.743042,55.7539306 C13.5325984,58.6956933 16.9001346,59.9021508 22.4480797,59.0465737 C26.0816283,60.7814672 42.032416,61.7814672 53.9842859,60.0465737 C70.8548796,59.2838531 79.0387981,50.2779482 86.9227043,52.4002637 C86.9227043,45.9319114 86.9227043,21.3273269 86.9227043,16.6457729 C80.3650769,14.7634601 74.8523613,14.7634601 73.2320481,13.9060941 C68.8115859,10.758984 56.5643094,1.85490112 52.0306337,0.094692298 Z" stroke="#3D3329" stroke-width="2" stroke-linecap="round" stroke-linejoin="round"></path>
            </g>
        </g>
    </g>
</svg>