<?xml version="1.0" encoding="UTF-8"?>
<svg width="93px" height="72px" viewBox="0 0 93 72" version="1.1" xmlns="http://www.w3.org/2000/svg" xmlns:xlink="http://www.w3.org/1999/xlink">
    <title>scissors</title>
    <g id="Page-1" stroke="none" stroke-width="1" fill="none" fill-rule="evenodd">
        <g id="Artboard" transform="translate(-213.000000, -145.000000)">
            <g id="scissors" transform="translate(214.980319, 146.835486)">
                <path d="M42.5466003,16.1509973 C14.9631581,11.8758588 1.17143705,13.2518686 1.17143705,20.2790269 C-0.931940147,28.8475219 31.1045471,32.5603128 39.5189436,33.1864541 C32.9118572,33.1864541 -0.931940147,40.5710955 0.019681033,50.1244806 C2.01623767,59.7811963 21.0269798,53.0347008 36.1176002,49.0683211 C35.2191871,50.1611747 31.7819401,55.7562485 40.940716,57.8898389 C39.5189436,59.0433289 39.5189436,65.8966195 45.019681,68.1645144 C48.8507125,69.5596706 56.1733309,67.3827496 59.9268732,65.8966195 C70.5327904,62.9266803 80.7375688,62.9266803 86.5861165,53.0347008 C91.7814656,39.2015035 90.019681,26.7649183 87.7249089,20.2790269 C86.5861165,16.1509973 80.1394056,13.5185561 75.6695006,9.73828947 C66.3830471,4.07015204 59.1690562,-0.985173437 53.7732582,0.164514381 C48.2482349,1.23417796 44.5060156,6.56300562 42.5466003,16.1509973 Z" id="scissors-bk" fill="#AB9989"></path>
                <path d="M42.5466003,16.1509973 C40.5489734,23.7249449 41.4271736,28.5598135 45.1812009,30.6556031 C55.4825639,32.5603128 56.8138181,18.7149749 58.4811792,16.0476176 C58.4811792,23.0586308 64.4817531,35.9023503 69.4592315,39.6619457 M36.1176002,49.0683211 C46.4999367,45.9665213 51.9984725,44.4010221 52.6132077,44.3718236 C53.7374616,44.5170644 61.9644521,42.2567107 63.5360518,47.1842857 C64.4771396,50.770671 60.178069,53.2814536 59.1542049,54.4165609 C60.0171615,55.0357874 63.5360518,55.7562485 64.4771396,58.0816293 C65.2159206,61.2965282 62.8241353,64.4612982 60.5785174,65.6997511 M59.1542049,54.4165609 C59.1542049,54.4165609 57.1270411,56.6583301 51.128262,57.3354357 C49.016347,57.5738157 45.6204983,57.7586168 40.940716,57.8898389 M42.5466003,16.1509973 C14.9631581,11.8758588 1.17143705,13.2518686 1.17143705,20.2790269 C-0.931940147,28.8475219 31.1045471,32.5603128 39.5189436,33.1864541 C32.9118572,33.1864541 -0.931940147,40.5710955 0.019681033,50.1244806 C2.01623767,59.7811963 21.0269798,53.0347008 36.1176002,49.0683211 C35.2191871,50.1611747 31.7819401,55.7562485 40.940716,57.8898389 C39.5189436,59.0433289 39.5189436,65.8966195 45.019681,68.1645144 C48.8507125,69.5596706 56.1733309,67.3827496 59.9268732,65.8966195 C70.5327904,62.9266803 80.7375688,62.9266803 86.5861165,53.0347008 C91.7814656,39.2015035 90.019681,26.7649183 87.7249089,20.2790269 C86.5861165,16.1509973 80.1394056,13.5185561 75.6695006,9.73828947 C66.3830471,4.07015204 59.1690562,-0.985173437 53.7732582,0.164514381 C48.2482349,1.23417796 44.5060156,6.56300562 42.5466003,16.1509973 Z" stroke="#3D3329" stroke-width="2" stroke-linecap="round" stroke-linejoin="round"></path>
            </g>
        </g>
    </g>
</svg>